# xmcd
#
# Track frame offsets:
#	150
#	21481
#	40396
#	59899
#	77676
#	100892
#	116372
#	134525
#	148097
#	195993
#	213044
#	230192
#	247925
#	270793
#	295454
#	322273
#
# Disc length: 4601 seconds
#
# Revision: 1
# Processed by: cddbd v1.5.2PL0 Copyright (c) Steve Scherf et al.
# Submitted via: audiograbber 1.83.01
#
DISCID=f311f710
DTITLE=Carat Rock`N`Drive - Carat Rock`N`Drive Greatest Hit´s Vol 1
DYEAR=2011
DGENRE=Rock
TTITLE0=Boston - More Than A Feeling
TTITLE1=Journey - Wheel In The Sky
TTITLE2=Foreigner - Juke Box Hero
TTITLE3=Ram Jam - Black Betty
TTITLE4=Europe - Final Countdown
TTITLE5=Kansas - Dust In The Wind
TTITLE6=Saga - On The Loose
TTITLE7=Cheap Trick - I Want You To Want Me
TTITLE8=DeepPurple - Child In Time
TTITLE9=Survivor - Eye Of The Tiger
TTITLE10=Blue Öyester Cult - (Dont Fear) The Reaper
TTITLE11=Toto - Hold The Line
TTITLE12=The Guess Who - American Woman
TTITLE13=Reo Speedwagon - Back On The Roard Again
TTITLE14=Hooters - All You Zombies
TTITLE15=John Farnham - Youre The Voice
EXTD=
EXTT0=
EXTT1=
EXTT2=
EXTT3=
EXTT4=
EXTT5=
EXTT6=
EXTT7=
EXTT8=
EXTT9=
EXTT10=
EXTT11=
EXTT12=
EXTT13=
EXTT14=
EXTT15=
PLAYORDER=
